<svg xmlns="http://www.w3.org/2000/svg" width="800" height="800" viewBox="0 0 800 800">
  <defs>
    <linearGradient id="bg" x1="0%" y1="0%" x2="100%" y2="100%">
      <stop offset="0%" style="stop-color:#141210"/>
      <stop offset="55%" style="stop-color:#241A14"/>
      <stop offset="100%" style="stop-color:#141210"/>
    </linearGradient>
    <radialGradient id="glow" cx="50%" cy="42%" r="45%">
      <stop offset="0%" style="stop-color:#C98B4A;stop-opacity:0.22"/>
      <stop offset="100%" style="stop-color:#C98B4A;stop-opacity:0"/>
    </radialGradient>
  </defs>
  <rect width="800" height="800" fill="url(#bg)"/>
  <rect width="800" height="800" fill="url(#glow)"/>
  <g transform="translate(400,370)">
    <path d="M-90,-40 L-90,50 Q-90,95 -45,95 L45,95 Q90,95 90,50 L90,-40 Z" fill="none" stroke="#C98B4A" stroke-width="7" stroke-linejoin="round"/>
    <path d="M90,-15 Q140,-15 140,25 Q140,65 90,60" fill="none" stroke="#C98B4A" stroke-width="7"/>
    <path d="M-40,-70 Q-30,-90 -40,-105 M0,-70 Q10,-90 0,-105 M40,-70 Q50,-90 40,-105" fill="none" stroke="#C98B4A" stroke-width="6" stroke-linecap="round" opacity="0.8"/>
  </g>
  <text x="400" y="560" font-family="Georgia,serif" font-size="40" font-style="italic" fill="#F3EFE1" text-anchor="middle" opacity="0.9">Mr. Coffee</text>
  <text x="400" y="596" font-family="sans-serif" font-size="14" letter-spacing="6" fill="#C98B4A" text-anchor="middle">CAFETERÍA DE ESPECIALIDAD</text>
</svg>
